<svg width="16" height="16" viewBox="0 0 16 16" fill="none" xmlns="http://www.w3.org/2000/svg">
<path d="M10.6666 2V4.66667M5.33329 2V4.66667M2.66663 7.33333H13.3333M2.66663 4.66667C2.66663 4.31304 2.8071 3.97391 3.05715 3.72386C3.3072 3.47381 3.64634 3.33333 3.99996 3.33333H12C12.3536 3.33333 12.6927 3.47381 12.9428 3.72386C13.1928 3.97391 13.3333 4.31304 13.3333 4.66667V12.6667C13.3333 13.0203 13.1928 13.3594 12.9428 13.6095C12.6927 13.8595 12.3536 14 12 14H3.99996C3.64634 14 3.3072 13.8595 3.05715 13.6095C2.8071 13.3594 2.66663 13.0203 2.66663 12.6667V4.66667ZM7.33329 10.6667C7.33329 10.8435 7.40353 11.013 7.52855 11.1381C7.65358 11.2631 7.82315 11.3333 7.99996 11.3333C8.17677 11.3333 8.34634 11.2631 8.47136 11.1381C8.59639 11.013 8.66663 10.8435 8.66663 10.6667C8.66663 10.4899 8.59639 10.3203 8.47136 10.1953C8.34634 10.0702 8.17677 10 7.99996 10C7.82315 10 7.65358 10.0702 7.52855 10.1953C7.40353 10.3203 7.33329 10.4899 7.33329 10.6667Z" stroke="#ACB5BB" stroke-width="1.3" stroke-linecap="round" stroke-linejoin="round"/>
</svg>
