<svg width="184" height="39" viewBox="0 0 184 39" fill="none" xmlns="http://www.w3.org/2000/svg">
<g clip-path="url(#clip0_4_347)">
<path d="M14.5104 16.4635L8.92703 18.5002C9.01764 18.7454 9.10142 18.9701 9.18521 19.2036L14.7657 17.1688C14.678 16.9217 14.5971 16.699 14.5104 16.4635ZM10.062 21.6095C10.1955 21.9748 10.3192 22.3197 10.4517 22.6772L10.8414 22.5385C13.2394 21.6619 15.6367 20.7867 18.0333 19.9127C18.236 19.8356 18.236 19.8405 18.31 20.0436C18.5536 20.7137 18.7971 21.3838 19.0407 22.054C19.0592 22.1067 19.0767 22.1575 19.0952 22.2181C19.0641 22.2374 19.0315 22.2543 18.9978 22.2689C16.3751 23.2281 13.7505 24.1864 11.124 25.1437C10.3906 25.4309 9.58475 25.4747 8.82474 25.2687C8.49502 25.1878 8.19119 25.0242 7.94172 24.7934C7.69226 24.5626 7.50532 24.272 7.39844 23.949C6.83273 22.3691 6.26085 20.7922 5.68279 19.2182C5.46146 18.7027 5.45305 18.1202 5.65943 17.5985C5.86581 17.0768 6.27012 16.6585 6.78369 16.4352C6.8416 16.4097 6.90079 16.3872 6.961 16.3678C9.27516 15.5089 11.5935 14.6642 13.9161 13.8339C14.6735 13.5353 15.5143 13.528 16.2767 13.8134C16.5495 13.9093 16.7979 14.0639 17.0046 14.2664C17.2113 14.469 17.3712 14.7144 17.4731 14.9856C17.8463 15.9624 18.1941 16.9451 18.5536 17.9249C18.614 18.0929 18.6734 18.2599 18.7406 18.4446L10.064 21.6114" fill="white"/>
<path d="M29.96 18.4973L24.3805 16.4606C24.2948 16.7009 24.212 16.9246 24.1253 17.1668L29.7038 19.2026L29.96 18.4973ZM28.4421 22.6742L28.8016 21.6749C28.8357 21.5821 28.7568 21.5772 28.7042 21.5626C28.0973 21.3369 27.4893 21.1172 26.8824 20.8954L20.2575 18.4797C20.2234 18.468 20.1932 18.4494 20.1494 18.4289C20.2604 18.1193 20.3686 17.8203 20.4787 17.5185C20.7485 16.7742 21.0359 16.0376 21.2834 15.2864C21.4348 14.778 21.7534 14.3359 22.1873 14.032C22.6213 13.7282 23.1449 13.5806 23.6732 13.6131C24.1746 13.6118 24.6718 13.7043 25.1394 13.8857L31.851 16.3346C32.2012 16.4465 32.5182 16.644 32.7733 16.9094C33.0284 17.1747 33.2137 17.4995 33.3124 17.8545C33.4252 18.2864 33.3983 18.7431 33.2354 19.1586C32.7191 20.5975 32.194 22.0373 31.6718 23.4752C31.5845 23.7383 31.4833 23.9965 31.3688 24.2489C31.2214 24.5348 31.0081 24.7815 30.7467 24.9683C30.4853 25.1552 30.1832 25.2769 29.8655 25.3234C29.1119 25.464 28.3339 25.3836 27.6247 25.0919C25.0527 24.1515 22.4833 23.2138 19.9165 22.2786C19.8035 22.2376 19.8084 22.1809 19.8395 22.094C20.0977 21.3936 20.3539 20.6952 20.6014 19.9918C20.6462 19.8717 20.6901 19.8512 20.8089 19.8942C22.9185 20.6678 25.0313 21.4392 27.1474 22.2083L28.4373 22.6791" fill="white"/>
<path d="M12.56 35.8546C8.23457 34.018 4.81385 30.534 3.05023 26.1688C1.2866 21.8037 1.3245 16.9148 3.15558 12.5777C4.95023 8.32936 8.3229 4.94774 12.56 3.14833C16.8919 1.33217 21.7658 1.31557 26.1099 3.10219C30.454 4.8888 33.9125 8.33232 35.7246 12.6754C37.527 16.9985 37.5517 21.8608 35.7933 26.2021C34.0349 30.5434 30.636 34.0117 26.3378 35.8507C24.1569 36.7704 21.8148 37.2442 19.4489 37.2442C17.0829 37.2442 14.7408 36.7704 12.56 35.8507M19.4479 0.000977785C8.70684 0.000977785 0 8.7319 0 19.5015C0 30.271 8.70684 39.001 19.4489 39.001C30.1909 39.001 38.8977 30.2701 38.8977 19.5005C38.8958 8.73092 30.189 0.000976832 19.4489 0L19.4479 0.000977785Z" fill="white"/>
<mask id="mask0_4_347" style="mask-type:luminance" maskUnits="userSpaceOnUse" x="0" y="0" width="39" height="40">
<path d="M12.56 35.8546C8.23457 34.018 4.81385 30.534 3.05023 26.1688C1.2866 21.8037 1.3245 16.9148 3.15558 12.5777C4.95023 8.32936 8.3229 4.94774 12.56 3.14833C16.8919 1.33217 21.7658 1.31557 26.1099 3.10219C30.454 4.8888 33.9125 8.33232 35.7246 12.6754C37.527 16.9985 37.5517 21.8608 35.7933 26.2021C34.0349 30.5434 30.636 34.0117 26.3378 35.8507C24.1569 36.7704 21.8148 37.2442 19.4489 37.2442C17.0829 37.2442 14.7408 36.7704 12.56 35.8507M19.4479 0.000977785C8.70684 0.000977785 0 8.7319 0 19.5015C0 30.271 8.70684 39.001 19.4489 39.001C30.1909 39.001 38.8977 30.2701 38.8977 19.5005C38.8958 8.73092 30.189 0.000976832 19.4489 0L19.4479 0.000977785Z" fill="white"/>
</mask>
<g mask="url(#mask0_4_347)">
<path d="M38.8968 0H0V39H38.8968V0Z" fill="white"/>
</g>
<path d="M48.3713 22.5345H45.7067V15.0491H48.3713C49.5865 15.0491 50.3919 15.5323 50.7874 16.4987C51.0173 17.0542 51.1323 17.7826 51.1323 18.6839C51.1323 20.5652 50.665 21.7514 49.7304 22.2425C49.3074 22.448 48.8411 22.5482 48.3713 22.5345ZM50.2808 18.6839C50.2808 17.2512 49.9606 16.357 49.3202 16.0015C49.0276 15.8489 48.7009 15.7742 48.3713 15.7846H46.5329V21.799H48.3674C49.6424 21.799 50.2802 20.7606 50.2808 18.6839Z" fill="white"/>
<path d="M56.1916 21.8635L56.5043 21.8312L56.5267 22.4691C55.8306 22.5735 55.1281 22.6303 54.4243 22.6391C53.6449 22.6391 53.0948 22.4137 52.7739 21.9631C52.4531 21.5124 52.2907 20.8114 52.2868 19.86C52.2868 17.963 53.0383 17.0148 54.5412 17.0154C55.268 17.0154 55.811 17.2189 56.1701 17.626C56.5293 18.033 56.7092 18.6731 56.7099 19.5464L56.666 20.1628H53.1071C53.1071 20.7613 53.2149 21.2047 53.4306 21.4932C53.6462 21.7817 54.0219 21.926 54.5578 21.926C55.0936 21.9279 55.6382 21.9071 56.1916 21.8635ZM55.8993 19.5191C55.8993 18.8561 55.7934 18.3876 55.5817 18.1134C55.37 17.8392 55.0248 17.7022 54.5461 17.7022C54.0674 17.7022 53.7076 17.8464 53.4666 18.1349C53.2257 18.4234 53.1019 18.8828 53.0954 19.5132L55.8993 19.5191Z" fill="white"/>
<path d="M59.6658 17.7422C58.8818 17.7422 58.4898 18.0164 58.4898 18.5647C58.4898 18.8167 58.5795 18.9952 58.7587 19.1C58.938 19.2048 59.3481 19.3129 59.9892 19.4243C60.6296 19.537 61.0843 19.6939 61.3531 19.8951C61.622 20.0964 61.7552 20.4751 61.7526 21.0312C61.7526 21.586 61.5743 21.9934 61.2177 22.2532C60.8612 22.513 60.3416 22.6433 59.6589 22.6439C59.1309 22.6366 58.6044 22.586 58.0846 22.4925L57.7611 22.4388L57.804 21.7355C58.4161 21.8388 59.0346 21.9002 59.655 21.9191C60.072 21.9191 60.3903 21.854 60.6098 21.7238C60.83 21.5899 60.9391 21.3662 60.9391 21.0527C60.9391 20.7391 60.8417 20.5262 60.6585 20.4148C60.4754 20.3035 60.0613 20.197 59.429 20.0954C58.7967 19.9938 58.3466 19.8473 58.0807 19.6519C57.8147 19.4565 57.6812 19.0971 57.6812 18.5706C57.6812 18.044 57.8663 17.6553 58.2365 17.3984C58.6067 17.1415 59.0695 17.0203 59.6229 17.0203C60.1756 17.0291 60.7269 17.0788 61.2723 17.1688L61.5743 17.2225L61.5529 17.9151C60.9284 17.815 60.2979 17.7573 59.6658 17.7422Z" fill="white"/>
<path d="M66.7973 18.7591V21.5284C66.8187 21.7951 67.0272 21.9543 67.4227 22.0041L67.3906 22.642C66.8216 22.642 66.3936 22.4977 66.1065 22.2093C65.4975 22.4883 64.8364 22.6348 64.1668 22.6391C63.6712 22.6391 63.2935 22.4987 63.0337 22.218C62.7739 21.9374 62.644 21.5333 62.644 21.0058C62.644 20.4803 62.7769 20.0928 63.0425 19.8434C63.3082 19.594 63.7255 19.4409 64.2944 19.3843L65.9867 19.2201V18.7552C65.9867 18.3879 65.9078 18.1241 65.7499 17.9659C65.6636 17.8843 65.5617 17.8211 65.4504 17.7801C65.339 17.7392 65.2205 17.7213 65.1021 17.7276C64.5036 17.7289 63.9057 17.7651 63.3114 17.836L62.9772 17.8682L62.9451 17.2518C63.6369 17.1044 64.3413 17.0249 65.0485 17.0145C65.6597 17.0145 66.1036 17.1548 66.3803 17.4355C66.657 17.7162 66.796 18.1574 66.7973 18.7591ZM63.4741 20.9657C63.4741 21.6293 63.7475 21.9611 64.2944 21.9611C64.7866 21.9606 65.2751 21.8764 65.7392 21.712L65.9877 21.6261V19.8414L64.3909 19.9928C64.0661 20.0208 63.8326 20.1143 63.6904 20.2732C63.5481 20.4321 63.4757 20.6629 63.4731 20.9657H63.4741Z" fill="white"/>
<path d="M68.3921 22.5345V17.1258H69.191V17.8614C69.783 17.4431 70.4551 17.1524 71.1648 17.0076V17.8291C70.843 17.8923 70.5272 17.9828 70.2208 18.0997C69.9639 18.1913 69.7133 18.2996 69.4706 18.424L69.2017 18.5647V22.5345H68.3921Z" fill="white"/>
<path d="M72.1244 22.5345V17.1258H72.9233V17.8614C73.5153 17.4431 74.1874 17.1524 74.8971 17.0076V17.8291C74.5753 17.8923 74.2595 17.9828 73.9531 18.0997C73.6962 18.1913 73.4456 18.2996 73.2029 18.424L72.935 18.5647V22.5345H72.1244Z" fill="white"/>
<path d="M75.5118 19.8189C75.5118 18.831 75.6882 18.1173 76.0409 17.6777C76.3935 17.2382 76.9885 17.0184 77.8257 17.0184C78.6635 17.0184 79.2568 17.2382 79.6056 17.6777C79.9544 18.1173 80.1288 18.831 80.1288 19.8189C80.1288 20.8075 79.9635 21.5238 79.6329 21.968C79.3023 22.4121 78.6983 22.6358 77.8208 22.6391C76.9433 22.6391 76.339 22.4157 76.0077 21.969C75.6765 21.5222 75.5112 20.8055 75.5118 19.8189ZM76.3448 19.8062C76.3448 20.5955 76.44 21.1491 76.6303 21.4669C76.8206 21.7847 77.2197 21.9436 77.8276 21.9436C78.4356 21.9436 78.833 21.7866 79.0201 21.4727C79.2072 21.1588 79.3007 20.6053 79.3007 19.8121C79.3007 19.0189 79.1961 18.4729 78.987 18.174C78.7778 17.8751 78.3914 17.7253 77.8276 17.7246C77.2632 17.7246 76.8735 17.8744 76.6585 18.174C76.4435 18.4735 76.339 19.0176 76.3448 19.8062Z" fill="white"/>
<path d="M81.5084 22.5345V14.7678H82.318V22.5345H81.5084Z" fill="white"/>
<path d="M84.0015 22.5345V14.7678H84.8101V22.5345H84.0015Z" fill="white"/>
<path d="M90.2366 18.7591V21.5284C90.2581 21.7951 90.4666 21.9543 90.8621 22.0041L90.83 22.642C90.2623 22.642 89.8343 22.4977 89.5459 22.2093C88.9363 22.4887 88.2745 22.6352 87.6042 22.6391C87.108 22.6391 86.7303 22.4987 86.4712 22.218C86.212 21.9374 86.0821 21.5333 86.0815 21.0058C86.0815 20.4803 86.2146 20.0928 86.4809 19.8434C86.7472 19.594 87.1642 19.4409 87.7319 19.3843L89.427 19.2201V18.7552C89.427 18.3879 89.3481 18.1241 89.1903 17.9659C89.104 17.8843 89.0021 17.8211 88.8907 17.7801C88.7794 17.7392 88.6609 17.7213 88.5424 17.7276C87.944 17.729 87.3461 17.7652 86.7518 17.836L86.4176 17.8682L86.3854 17.2518C87.0772 17.1045 87.7817 17.025 88.4888 17.0145C89.0994 17.0145 89.5436 17.1548 89.8216 17.4355C90.0996 17.7162 90.2379 18.1574 90.2366 18.7591ZM86.9135 20.9657C86.9135 21.6293 87.1869 21.9611 87.7338 21.9611C88.2263 21.9606 88.7151 21.8764 89.1796 21.712L89.427 21.6261V19.8414L87.8312 19.9928C87.5065 20.0208 87.2727 20.1143 87.1298 20.2732C86.9869 20.4321 86.9148 20.6629 86.9135 20.9657Z" fill="white"/>
<path d="M95.9749 14.7678V22.5345H95.177V22.1663C94.6819 22.467 94.1162 22.6311 93.5374 22.642C93.2816 22.6465 93.0267 22.6103 92.7823 22.5345C92.5532 22.4536 92.3463 22.3198 92.1783 22.1438C91.7886 21.7531 91.5938 21.0338 91.5938 19.986C91.5938 18.9382 91.7681 18.1811 92.1169 17.7149C92.4657 17.2499 93.0428 17.0174 93.8482 17.0174C94.294 17.0204 94.7385 17.0675 95.1751 17.1581V14.7668L95.9749 14.7678ZM93.1711 21.842C93.332 21.8976 93.5017 21.9231 93.6718 21.9172C93.9056 21.9136 94.1378 21.8791 94.3625 21.8146C94.5672 21.7636 94.7675 21.6967 94.9617 21.6144L95.177 21.5167V17.8526C94.7539 17.77 94.3241 17.7265 93.893 17.7227C93.3461 17.7227 92.9652 17.8975 92.7502 18.2472C92.5352 18.5969 92.4271 19.1397 92.4258 19.8756C92.4258 20.7118 92.5518 21.2741 92.8038 21.5626C92.901 21.685 93.0273 21.781 93.1711 21.842Z" fill="white"/>
<path d="M97.3018 19.8189C97.3018 18.831 97.4782 18.1173 97.8308 17.6777C98.1835 17.2382 98.7785 17.0184 99.6157 17.0184C100.454 17.0184 101.047 17.2382 101.396 17.6777C101.744 18.1173 101.919 18.831 101.919 19.8189C101.919 20.8075 101.753 21.5238 101.423 21.968C101.092 22.4121 100.488 22.6355 99.6108 22.6381C98.7333 22.6381 98.1293 22.4147 97.7987 21.968C97.4681 21.5212 97.3025 20.8049 97.3018 19.8189ZM98.1329 19.8033C98.1329 20.5926 98.228 21.1461 98.4183 21.4639C98.6086 21.7817 99.0077 21.9406 99.6157 21.9406C100.224 21.9406 100.621 21.7837 100.808 21.4698C100.995 21.1559 101.089 20.6024 101.089 19.8092C101.089 19.016 100.984 18.4699 100.776 18.171C100.567 17.8721 100.181 17.7217 99.6157 17.7217C99.0506 17.7217 98.6628 17.8721 98.4466 18.171C98.2303 18.4699 98.1329 19.0131 98.1329 19.8062V19.8033Z" fill="white"/>
<path d="M105.608 24.9356V17.1258H106.406V17.5166C106.889 17.2039 107.45 17.0318 108.024 17.0193C108.707 17.0193 109.203 17.2372 109.513 17.6728C109.823 18.1085 109.977 18.8278 109.977 19.8307C109.977 20.8335 109.795 21.5528 109.432 21.9885C109.069 22.4242 108.467 22.6423 107.626 22.643C107.22 22.6464 106.815 22.6068 106.417 22.5248V24.9366L105.608 24.9356ZM107.91 17.7422C107.675 17.7453 107.44 17.7818 107.215 17.8506C107.014 17.9058 106.818 17.9783 106.63 18.0675L106.425 18.1749V21.8205C106.811 21.8878 107.202 21.9276 107.594 21.9396C108.178 21.9396 108.587 21.7736 108.818 21.4415C109.05 21.1093 109.167 20.5685 109.169 19.8189C109.169 19.07 109.063 18.5367 108.851 18.2189C108.749 18.0636 108.609 17.9378 108.444 17.8541C108.279 17.7704 108.095 17.7318 107.91 17.7422Z" fill="white"/>
<path d="M111.056 19.8189C111.056 18.831 111.232 18.1173 111.584 17.6777C111.936 17.2382 112.532 17.0184 113.37 17.0184C114.207 17.0184 114.801 17.2382 115.15 17.6777C115.499 18.1173 115.674 18.831 115.673 19.8189C115.673 20.8075 115.508 21.5238 115.176 21.968C114.845 22.4121 114.242 22.6358 113.366 22.6391C112.489 22.6391 111.885 22.4157 111.554 21.969C111.224 21.5222 111.058 20.8055 111.056 19.8189ZM111.886 19.8033C111.886 20.5926 111.982 21.1461 112.173 21.4639C112.364 21.7817 112.763 21.9406 113.37 21.9406C113.977 21.9406 114.375 21.7837 114.562 21.4698C114.749 21.1559 114.842 20.6024 114.842 19.8092C114.842 19.016 114.738 18.4699 114.529 18.171C114.321 17.8721 113.935 17.7223 113.37 17.7217C112.805 17.7217 112.415 17.8715 112.201 18.171C111.987 18.4706 111.882 19.0157 111.886 19.8062V19.8033Z" fill="white"/>
<path d="M116.988 22.5345V17.1258H117.787V17.8614C118.379 17.4431 119.051 17.1524 119.761 17.0076V17.8291C119.439 17.8923 119.124 17.9828 118.817 18.0997C118.56 18.191 118.31 18.2994 118.068 18.424L117.798 18.5647V22.5345H116.988Z" fill="white"/>
<path d="M123.234 22.5345V15.0491H124.793L127.652 21.799H127.879V15.0491H128.698V22.5345H127.177L124.275 15.7846H124.07V22.5345H123.234Z" fill="white"/>
<path d="M134.001 21.8635L134.313 21.8312L134.335 22.4691C133.638 22.5746 132.936 22.6324 132.231 22.642C131.452 22.642 130.902 22.4167 130.581 21.966C130.26 21.5154 130.098 20.8143 130.094 19.8629C130.094 17.9659 130.846 17.0177 132.349 17.0184C133.075 17.0184 133.618 17.2219 133.978 17.6289C134.339 18.0359 134.518 18.6761 134.517 19.5493L134.474 20.1657H130.914C130.914 20.7642 131.022 21.2077 131.238 21.4962C131.453 21.7847 131.829 21.9289 132.365 21.9289C132.901 21.9289 133.447 21.9071 134.001 21.8635ZM133.708 19.5191C133.708 18.8561 133.602 18.3876 133.39 18.1134C133.177 17.8392 132.832 17.7022 132.354 17.7022C131.876 17.7022 131.516 17.8464 131.276 18.1349C131.035 18.4234 130.911 18.8828 130.903 19.5132L133.708 19.5191Z" fill="white"/>
<path d="M139.448 21.8635L139.76 21.8312L139.783 22.4691C139.086 22.5746 138.383 22.6323 137.679 22.642C136.899 22.642 136.349 22.4167 136.028 21.966C135.707 21.5154 135.545 20.8143 135.541 19.8629C135.541 17.9659 136.292 17.0177 137.795 17.0184C138.522 17.0184 139.065 17.2219 139.424 17.6289C139.784 18.0359 139.963 18.6761 139.964 19.5493L139.921 20.1657H136.361C136.361 20.7642 136.469 21.2077 136.685 21.4962C136.9 21.7847 137.276 21.9289 137.812 21.9289C138.349 21.9289 138.894 21.9071 139.448 21.8635ZM139.155 19.5191C139.155 18.8561 139.05 18.3876 138.838 18.1134C138.626 17.8392 138.281 17.7022 137.802 17.7022C137.324 17.7022 136.965 17.8464 136.724 18.1349C136.483 18.4234 136.359 18.8828 136.353 19.5132L139.155 19.5191Z" fill="white"/>
<path d="M141.23 22.5345V17.1258H142.028V17.8614C142.621 17.4431 143.293 17.1524 144.002 17.0076V17.8291C143.681 17.8923 143.365 17.9828 143.058 18.0997C142.801 18.1913 142.551 18.2996 142.308 18.424L142.039 18.5647V22.5345H141.23Z" fill="white"/>
<path d="M144.96 15.9038V14.9631H145.77V15.9038H144.96ZM144.96 22.5346V17.1258H145.77V22.5346H144.96Z" fill="white"/>
<path d="M148.132 22.5345H147.323V17.1258H148.121V17.5048C148.706 17.1792 149.263 17.0164 149.793 17.0164C150.512 17.0164 150.996 17.2118 151.244 17.6025C151.492 17.9933 151.616 18.6852 151.616 19.6783V22.5345H150.818V19.7017C150.818 18.9515 150.744 18.4377 150.597 18.1603C150.45 17.8829 150.135 17.7438 149.653 17.7432C149.407 17.7457 149.162 17.7805 148.924 17.8467C148.724 17.8963 148.528 17.9633 148.34 18.047L148.135 18.1447L148.132 22.5345Z" fill="white"/>
<path d="M155.197 25.0811C154.334 25.0811 153.732 24.9639 153.39 24.7295C153.049 24.495 152.878 24.0678 152.878 23.4479C152.866 23.1934 152.934 22.9417 153.073 22.7279C153.259 22.489 153.481 22.2795 153.73 22.1067C153.528 21.9699 153.427 21.7212 153.428 21.3604C153.428 21.2373 153.518 21.0107 153.698 20.6766L153.795 20.5037C153.226 20.2432 152.942 19.6988 152.943 18.8704C152.943 17.6377 153.615 17.0213 154.96 17.0213C155.283 17.0189 155.605 17.055 155.92 17.1287L156.082 17.162L157.679 17.118V17.8106L156.654 17.7891C156.891 18.0264 157.009 18.3879 157.009 18.8704C157.009 19.5484 156.842 20.0224 156.508 20.2927C156.173 20.563 155.646 20.6981 154.928 20.6981C154.751 20.6998 154.574 20.6854 154.399 20.6551C154.27 20.9729 154.205 21.1784 154.205 21.2715C154.205 21.4949 154.273 21.6336 154.41 21.6876C154.547 21.7417 154.961 21.7687 155.65 21.7687C156.341 21.7687 156.837 21.8771 157.139 22.094C157.441 22.3108 157.592 22.7325 157.592 23.359C157.595 24.5071 156.797 25.0811 155.197 25.0811ZM153.677 23.3824C153.677 23.7644 153.783 24.0301 153.994 24.1776C154.206 24.3251 154.598 24.3993 155.17 24.3993C155.742 24.3993 156.152 24.3202 156.401 24.1619C156.649 24.0037 156.773 23.738 156.773 23.3668C156.773 22.9956 156.682 22.7553 156.503 22.6469C156.324 22.5384 155.97 22.4847 155.446 22.4847L154.277 22.431C154.091 22.5531 153.929 22.7068 153.796 22.8852C153.711 23.0346 153.669 23.2053 153.677 23.3775V23.3824ZM153.752 18.8724C153.752 19.2983 153.847 19.6011 154.038 19.7808C154.229 19.9606 154.544 20.0508 154.982 20.0514C155.42 20.0514 155.733 19.9612 155.92 19.7808C156.107 19.6004 156.201 19.2957 156.201 18.8665C156.201 18.438 156.107 18.1336 155.92 17.9532C155.733 17.7728 155.42 17.6826 154.982 17.6826C154.542 17.6826 154.228 17.7744 154.038 17.9581C153.848 18.1417 153.753 18.4449 153.752 18.8675V18.8724Z" fill="white"/>
<path d="M165.553 22.5345H161.001V21.8312L163.083 19.6353C163.443 19.2602 163.705 18.9753 163.87 18.7806C164.047 18.569 164.197 18.3368 164.318 18.089C164.445 17.8409 164.512 17.5666 164.513 17.288C164.513 16.8269 164.387 16.5013 164.136 16.3111C163.885 16.121 163.493 16.0272 162.96 16.0298C162.436 16.037 161.913 16.0985 161.401 16.2135L161.121 16.2682L161.056 15.5756C161.743 15.3801 162.455 15.2814 163.17 15.2825C163.896 15.2825 164.445 15.4359 164.815 15.7426C165.185 16.0494 165.37 16.5342 165.37 17.1971C165.382 17.6594 165.266 18.1159 165.036 18.5168C164.814 18.8919 164.429 19.3426 163.882 19.8688L161.981 21.8097H165.552L165.553 22.5345Z" fill="white"/>
<path d="M169.307 15.2767C169.897 15.2767 170.375 15.3884 170.741 15.6117C171.521 16.0741 171.911 17.2277 171.911 19.0726C171.911 20.379 171.695 21.3001 171.264 21.8361C170.832 22.3721 170.184 22.6397 169.318 22.6391C168.455 22.6391 167.805 22.3743 167.37 21.8449C166.934 21.3154 166.716 20.3712 166.717 19.0121C166.717 17.6536 166.931 16.6911 167.359 16.1246C167.787 15.558 168.436 15.2754 169.307 15.2767ZM169.318 16.023C168.908 16.023 168.583 16.1096 168.344 16.2828C167.833 16.6358 167.578 17.5693 167.578 19.0834C167.578 20.1507 167.718 20.8882 167.999 21.2959C168.28 21.7036 168.718 21.9071 169.315 21.9064C169.911 21.9064 170.35 21.701 170.631 21.2901C170.913 20.8791 171.053 20.1165 171.051 19.0023C171.051 17.8887 170.917 17.1138 170.647 16.6775C170.377 16.2411 169.934 16.023 169.318 16.023Z" fill="white"/>
<path d="M177.635 22.5345H173.087V21.8312L175.169 19.6353C175.529 19.2602 175.792 18.9753 175.957 18.7806C176.133 18.569 176.284 18.3368 176.405 18.089C176.531 17.8409 176.598 17.5666 176.6 17.288C176.6 16.8269 176.474 16.5013 176.222 16.3111C175.97 16.121 175.578 16.0272 175.046 16.0298C174.521 16.037 173.999 16.0985 173.487 16.2135L173.206 16.2682L173.141 15.5756C173.829 15.3801 174.541 15.2814 175.256 15.2825C175.982 15.2825 176.53 15.4359 176.901 15.7426C177.271 16.0494 177.456 16.5342 177.456 17.1971C177.467 17.6594 177.352 18.1159 177.122 18.5168C176.899 18.8919 176.514 19.3426 175.967 19.8688L174.062 21.8097H177.632L177.635 22.5345Z" fill="white"/>
<path d="M182.263 22.5345V21.1386H178.811V20.49L180.839 15.3958H181.745L179.684 20.403H182.263V18.1749H183.094V20.403H184V21.1386H183.094V22.5345H182.263Z" fill="white"/>
</g>
<defs>
<clipPath id="clip0_4_347">
<rect width="184" height="39" fill="white"/>
</clipPath>
</defs>
</svg>
