<svg width="126" height="44" viewBox="0 0 126 44" fill="none" xmlns="http://www.w3.org/2000/svg">
<g clip-path="url(#clip0_4_212)">
<path d="M70.0615 22.7874L70.3965 23.7084L70.7269 23.5891L76.9222 21.3223C77.098 21.2579 77.098 21.2603 77.1598 21.4345L77.7872 23.1692C77.8038 23.2145 77.8181 23.2575 77.8347 23.3099C77.8075 23.3266 77.7788 23.341 77.7492 23.3529L70.9645 25.8345C70.3328 26.0807 69.6394 26.1183 68.9849 25.9418C68.7008 25.8724 68.4389 25.7315 68.2239 25.5324C68.009 25.3333 67.8481 25.0825 67.7563 24.8037C67.2811 23.4412 66.7725 22.0811 66.2782 20.721C66.1794 20.4879 66.1298 20.2367 66.1327 19.9833C66.1356 19.73 66.1908 19.48 66.2949 19.2492C66.399 19.0184 66.5497 18.8118 66.7375 18.6425C66.9252 18.4732 67.1459 18.3449 67.3856 18.2657C69.3786 17.526 71.3764 16.7966 73.3789 16.0776C74.0319 15.8212 74.7561 15.8152 75.4132 16.0609C75.6477 16.1439 75.8615 16.2772 76.0396 16.4515C76.2177 16.6258 76.3559 16.8369 76.4445 17.0703C76.7653 17.9126 77.0648 18.7596 77.3737 19.6067L77.5353 20.0529L70.0615 22.7874ZM73.8946 18.3468L69.0895 20.103L69.3105 20.7115L74.1156 18.9553L73.8946 18.3468Z" fill="white"/>
<path d="M85.9074 23.7085C86.0167 23.4126 86.1189 23.1286 86.2211 22.8471C86.252 22.766 86.1831 22.7636 86.1403 22.7493L84.5695 22.1742L78.8661 20.0887C78.8341 20.077 78.8031 20.0627 78.7734 20.0458C78.8685 19.7809 78.9611 19.5208 79.0562 19.2607C79.2938 18.6189 79.5315 17.9842 79.7501 17.3352C80.0828 16.3234 80.8504 15.9035 81.8057 15.8892C82.2383 15.8881 82.6673 15.9691 83.07 16.1278L88.8518 18.2395C89.1541 18.3355 89.4276 18.5058 89.6476 18.735C89.8676 18.9642 90.027 19.245 90.1113 19.5519C90.2088 19.9242 90.1847 20.3182 90.0424 20.6757C89.5956 21.9197 89.1465 23.1613 88.6949 24.4004C88.6202 24.6263 88.5329 24.8477 88.4335 25.0638C88.3066 25.3105 88.1229 25.5232 87.8976 25.6842C87.6724 25.8452 87.4121 25.9499 87.1384 25.9896C86.4854 26.1149 85.8103 26.0478 85.1945 25.7963C82.9765 24.985 80.7633 24.1761 78.5548 23.3696C78.4573 23.3338 78.4621 23.2885 78.493 23.2098C78.714 22.6061 78.935 22.0024 79.1489 21.3963C79.1869 21.2913 79.2249 21.2746 79.3271 21.3128L84.7929 23.31L85.9074 23.7085ZM87.2168 20.1031L82.4093 18.3469L82.1907 18.9553L86.9958 20.7115C87.0576 20.5039 87.1289 20.3083 87.2049 20.1031H87.2168Z" fill="white"/>
<path d="M121.25 26.8582C121.52 26.684 121.775 26.5384 122.008 26.3618C122.317 26.1232 122.614 25.8846 122.901 25.6174C123.059 25.4843 123.161 25.2972 123.189 25.0924H123.039H120.449H117.87C117.163 25.1004 116.476 24.8503 115.938 24.3885C115.748 24.2283 115.597 24.0265 115.496 23.7987C115.395 23.5709 115.347 23.3229 115.356 23.0738C115.356 21.6063 115.356 20.1388 115.356 18.6714C115.344 18.4322 115.379 18.1929 115.461 17.9679C115.543 17.7428 115.669 17.5366 115.831 17.3614C116.125 17.0839 116.507 16.9192 116.91 16.8961C117.021 16.8861 117.132 16.8822 117.243 16.8842H125.831C125.995 16.8842 125.995 16.8842 125.995 17.0512C125.995 19.6282 125.995 22.2052 125.995 24.7822C125.997 25.1058 125.93 25.4259 125.798 25.721C125.666 26.0162 125.472 26.2794 125.23 26.4931C124.935 26.7474 124.554 26.8796 124.165 26.8629C123.215 26.8629 122.264 26.8629 121.314 26.8629L121.25 26.8582ZM123.201 19.0675H118.16V19.1963C118.16 20.3592 118.16 21.5204 118.16 22.6801C118.16 22.7946 118.191 22.828 118.305 22.828C119.889 22.828 121.474 22.828 123.058 22.828C123.167 22.828 123.198 22.797 123.196 22.6872C123.196 21.5228 123.196 20.3576 123.196 19.1916L123.201 19.0675Z" fill="white"/>
<path d="M113.837 25.1067C113.786 25.1149 113.735 25.1205 113.683 25.1234C112.82 25.1234 111.955 25.1234 111.093 25.1234C111.067 25.1234 111.031 25.0876 111.021 25.0614C111.014 25.0259 111.014 24.9894 111.021 24.954V19.275C111.021 19.0961 111.021 19.0961 110.841 19.0961H106.014C105.903 19.0961 105.869 19.1247 105.869 19.2392C105.869 21.1481 105.869 23.0427 105.869 24.9421C105.869 25.1306 105.869 25.1306 105.677 25.1306H103.253H103.015V16.7792H111.57C111.875 16.764 112.18 16.7872 112.478 16.8484C112.825 16.9404 113.136 17.1346 113.372 17.4059C113.608 17.6773 113.758 18.0133 113.802 18.3707C113.819 18.5252 113.828 18.6805 113.828 18.836C113.828 20.8705 113.828 22.9067 113.828 24.9444L113.837 25.1067Z" fill="white"/>
<path d="M61.7559 25.1163V19.2966C61.7559 19.1104 61.7559 19.1104 61.5658 19.1104H56.7773C56.6229 19.1104 56.6229 19.1104 56.6229 19.2655V24.9302C56.6229 25.1211 56.6229 25.1234 56.4328 25.1234H53.9613C53.7736 25.1234 53.7736 25.1234 53.7736 24.9397V16.8126H53.9066H62.6518C62.993 16.7948 63.3321 16.8752 63.6293 17.0443C63.9265 17.2133 64.1694 17.4641 64.3296 17.767C64.4919 18.0653 64.5738 18.4008 64.5672 18.7406C64.5672 20.8284 64.5672 22.9163 64.5672 25.0041C64.5672 25.1521 64.4888 25.1402 64.3961 25.1402H61.9722L61.7559 25.1163Z" fill="white"/>
<path d="M94.3343 19.1152V25.0805H94.225C93.3623 25.0805 92.4997 25.0805 91.637 25.0805C91.5277 25.0805 91.5063 25.0494 91.5063 24.9468C91.5063 22.2792 91.5063 19.6115 91.5063 16.9438V16.8173H94.3414V17.2826L94.4983 17.1848C94.8847 16.9304 95.3385 16.799 95.8005 16.8078C96.2354 16.8078 96.6727 16.8078 97.1076 16.8078H97.2525V19.1152H94.3343Z" fill="white"/>
<path d="M98.645 16.7768H101.475V25.0996H98.645V16.7768Z" fill="white"/>
<path d="M101.494 15.6577H98.657V14.4933H101.494V15.6577Z" fill="white"/>
<path d="M16.3497 18.5783L10.0641 20.8761C10.1663 21.1529 10.259 21.4058 10.354 21.6707L16.6373 19.3729C16.5374 19.0961 16.4471 18.8431 16.3497 18.5783ZM11.3379 24.3837L11.7727 25.5887L12.2052 25.4312L20.3183 22.47C20.556 22.3818 20.556 22.3889 20.6296 22.6156L21.4543 24.8848C21.4756 24.9444 21.4947 25.0017 21.5137 25.0709C21.4777 25.0924 21.4404 25.1115 21.402 25.1282C18.4489 26.2115 15.4918 27.2924 12.5308 28.3709C11.7045 28.6946 10.7967 28.7439 9.94052 28.5117C9.56898 28.4206 9.2266 28.2362 8.94558 27.9757C8.66456 27.7153 8.45413 27.3873 8.33406 27.0228C7.70035 25.2411 7.05634 23.4619 6.40203 21.685C6.27807 21.3965 6.21209 21.0863 6.20786 20.7721C6.20363 20.4579 6.26123 20.146 6.37737 19.8542C6.49352 19.5625 6.6659 19.2966 6.88464 19.0719C7.10338 18.8472 7.36417 18.6681 7.65203 18.5449C7.71857 18.5186 7.7851 18.4924 7.85164 18.4709C10.4594 17.5021 13.0734 16.5477 15.6938 15.6076C16.5472 15.2714 17.4943 15.2637 18.353 15.5861C18.66 15.6939 18.9396 15.8679 19.1724 16.0959C19.4052 16.3238 19.5854 16.6002 19.7005 16.9056C20.1211 18.0056 20.5132 19.1175 20.9172 20.2223C20.9861 20.4108 21.0526 20.5993 21.1287 20.8093L11.3521 24.3885" fill="white"/>
<path d="M33.7546 20.8713L27.469 18.5735C27.3715 18.8455 27.2789 19.0985 27.1814 19.3729L33.4671 21.6683C33.5645 21.3939 33.6548 21.1434 33.7546 20.8713ZM32.0436 25.5839L32.4547 24.4577C32.4927 24.3527 32.4024 24.3503 32.3478 24.3312C31.6634 24.0759 30.9789 23.8277 30.2945 23.5796L22.8326 20.8523C22.7904 20.8353 22.7492 20.8162 22.709 20.795C22.835 20.4466 22.9467 20.1078 23.0797 19.769C23.3839 18.929 23.7095 18.0987 23.9875 17.2516C24.1573 16.6773 24.516 16.1777 25.005 15.8345C25.494 15.4912 26.0845 15.3246 26.68 15.3618C27.2488 15.3594 27.813 15.4638 28.3435 15.6696L35.9053 18.4327C36.2993 18.5591 36.6559 18.7818 36.943 19.0808C37.23 19.3799 37.4385 19.7459 37.5497 20.146C37.6778 20.6334 37.6478 21.149 37.4642 21.6182C36.882 23.2431 36.2902 24.8657 35.7033 26.4883C35.6051 26.7854 35.4908 27.0769 35.3611 27.3616C35.1949 27.6841 34.9545 27.9621 34.6598 28.1725C34.3651 28.3829 34.0246 28.5197 33.6667 28.5713C32.818 28.7311 31.9415 28.6407 31.1429 28.3113C28.2437 27.2486 25.3484 26.19 22.4571 25.1353C22.3312 25.09 22.3359 25.0303 22.3716 24.9277C22.6615 24.1379 22.9514 23.3505 23.2294 22.5559C23.2794 22.4223 23.3293 22.3985 23.4671 22.4486C25.8435 23.3187 28.2199 24.1888 30.5963 25.059L32.0507 25.5887" fill="white"/>
<path d="M14.1516 40.4518C9.2792 38.3782 5.42627 34.4468 3.4397 29.5219C1.45312 24.5969 1.49548 19.0815 3.55749 14.1878C5.57942 9.39547 9.37866 5.58072 14.1516 3.55054C16.5686 2.53615 19.1609 2.00972 21.7806 2.00131C24.4002 1.99291 26.9958 2.50268 29.4193 3.50154C31.8427 4.50039 34.0464 5.96876 35.9047 7.82279C37.7629 9.67683 39.2392 11.8802 40.2494 14.3072C42.2793 19.1843 42.3068 24.6695 40.3259 29.5669C38.345 34.4644 34.5162 38.377 29.6743 40.4518C27.2174 41.49 24.5786 42.0248 21.9129 42.0248C19.2473 42.0248 16.6085 41.49 14.1516 40.4518ZM21.9129 0C16.1013 0 10.5276 2.3181 6.41815 6.44434C2.30868 10.5706 0 16.167 0 22.0024C-1.6925e-08 24.8917 0.566818 27.7526 1.66808 30.422C2.76933 33.0913 4.38346 35.5167 6.4183 37.5596C8.45313 39.6025 10.8688 41.223 13.5274 42.3284C16.186 43.4339 19.0354 44.0027 21.9129 44.0024C27.724 44.0024 33.297 41.6845 37.4061 37.5587C41.5151 33.4329 43.8235 27.8371 43.8235 22.0024C43.8229 16.1676 41.5143 10.5719 37.4055 6.44589C33.2967 2.31985 27.724 0.00126537 21.9129 0Z" fill="white"/>
<mask id="mask0_4_212" style="mask-type:luminance" maskUnits="userSpaceOnUse" x="0" y="0" width="44" height="45">
<path d="M14.1516 40.4518C9.2792 38.3782 5.42627 34.4468 3.4397 29.5219C1.45312 24.5969 1.49548 19.0815 3.55749 14.1878C5.57942 9.39547 9.37866 5.58072 14.1516 3.55054C16.5686 2.53615 19.1609 2.00972 21.7806 2.00131C24.4002 1.99291 26.9958 2.50268 29.4193 3.50154C31.8427 4.50039 34.0464 5.96876 35.9047 7.82279C37.7629 9.67683 39.2392 11.8802 40.2494 14.3072C42.2793 19.1843 42.3068 24.6695 40.3259 29.5669C38.345 34.4644 34.5162 38.377 29.6743 40.4518C27.2174 41.49 24.5786 42.0248 21.9129 42.0248C19.2473 42.0248 16.6085 41.49 14.1516 40.4518ZM21.9129 0C16.1013 0 10.5276 2.3181 6.41815 6.44434C2.30868 10.5706 0 16.167 0 22.0024C-1.6925e-08 24.8917 0.566818 27.7526 1.66808 30.422C2.76933 33.0913 4.38346 35.5167 6.4183 37.5596C8.45313 39.6025 10.8688 41.223 13.5274 42.3284C16.186 43.4339 19.0354 44.0027 21.9129 44.0024C27.724 44.0024 33.297 41.6845 37.4061 37.5587C41.5151 33.4329 43.8235 27.8371 43.8235 22.0024C43.8229 16.1676 41.5143 10.5719 37.4055 6.44589C33.2967 2.31985 27.724 0.00126537 21.9129 0Z" fill="white"/>
</mask>
<g mask="url(#mask0_4_212)">
<path d="M43.8211 0H0V44H43.8211V0Z" fill="white"/>
</g>
</g>
<defs>
<clipPath id="clip0_4_212">
<rect width="126" height="44" fill="white"/>
</clipPath>
</defs>
</svg>
